<svg xmlns="http://www.w3.org/2000/svg" viewBox="60 100 240 220" fill="currentColor"><path d="M 90.825 115.387 C 85.063 117.466, 79.391 122.575, 76.579 128.218 C 74.253 132.886, 74 134.529, 74 144.996 C 74 152.688, 74.405 157.005, 75.200 157.800 C 76.045 158.645, 81.781 159, 94.613 159 L 112.825 159 113.163 223.250 L 113.500 287.500 116.311 293.224 C 117.857 296.373, 120.987 300.545, 123.267 302.497 C 130.603 308.776, 132.525 309, 179.027 309 C 218.119 309, 220.792 308.887, 222.345 307.171 C 224.466 304.828, 224.430 303.700, 222.171 301.655 C 220.556 300.193, 216.877 300, 190.671 300 C 174.352 300, 161 299.732, 161 299.404 C 161 299.077, 161.831 297.614, 162.847 296.154 C 165.696 292.060, 167 287.255, 167 280.851 L 167 275 180.500 275 C 192.667 275, 194.198 274.802, 196 273 C 198.411 270.589, 198.487 269.630, 196.429 267.571 C 195.122 266.264, 191.958 266, 177.629 266 C 165.562 266, 160.040 266.360, 159.200 267.200 C 158.480 267.920, 157.998 271.418, 157.994 275.950 C 157.987 285.706, 156.556 290.644, 152.587 294.613 C 144.785 302.415, 130.536 300.361, 125.235 290.671 C 123.643 287.762, 123.459 281.095, 123 210 L 122.500 132.500 119.820 127.750 L 117.141 123 172.320 123.006 C 207.740 123.009, 228.853 123.387, 231.277 124.060 C 235.978 125.365, 241.863 130.428, 243.649 134.702 C 244.704 137.229, 245 146.378, 245 176.534 C 245 201.228, 245.373 215.828, 246.035 217.066 C 247.457 219.722, 252.571 219.671, 254.007 216.986 C 254.741 215.616, 254.992 202.121, 254.793 174.736 L 254.500 134.500 251.551 129.176 C 248.564 123.784, 244.359 119.816, 238 116.387 C 234.677 114.595, 230.966 114.489, 164.500 114.280 C 108.442 114.104, 93.768 114.325, 90.825 115.387 M 93.500 124.370 C 89.747 126.105, 85.458 130.625, 84.064 134.315 C 83.479 135.863, 83 140.026, 83 143.565 L 83 150 98 150 L 113 150 113 142.148 C 113 135.651, 112.612 133.725, 110.750 130.990 C 106.176 124.269, 99.369 121.657, 93.500 124.370 M 152.200 165.200 C 150.238 167.162, 150.815 170.833, 153.346 172.491 C 155.365 173.814, 159.898 173.966, 185.909 173.584 C 207.253 173.271, 216.548 172.790, 217.563 171.948 C 219.623 170.238, 219.336 166.250, 217.066 165.035 C 214.161 163.481, 153.766 163.634, 152.200 165.200 M 151.783 197.578 C 150.948 199.411, 150.913 200.638, 151.663 201.828 C 152.602 203.318, 155.876 203.529, 181.690 203.765 C 209.519 204.019, 210.734 203.951, 212.463 202.040 C 214.150 200.177, 214.159 199.892, 212.609 197.526 L 210.954 195 181.956 195 L 152.957 195 151.783 197.578 M 151.996 228.004 C 149.593 230.407, 149.554 230.918, 151.557 233.777 C 153.089 235.965, 153.479 236, 176.122 236 C 190.071 236, 199.893 235.592, 201.066 234.965 C 203.329 233.754, 203.625 229.764, 201.578 228.065 C 200.613 227.264, 192.747 226.744, 177.074 226.447 C 155.029 226.028, 153.902 226.098, 151.996 228.004 M 245.373 228.765 C 244.753 229.169, 243.002 232.650, 241.482 236.500 C 239.961 240.350, 237.426 246.084, 235.848 249.243 C 233.252 254.437, 232.335 255.306, 226.239 258.339 C 222.533 260.183, 217.122 262.531, 214.215 263.556 C 203.811 267.226, 203.466 271.452, 213.278 275.006 C 216.700 276.246, 222.575 278.801, 226.332 280.684 L 233.165 284.108 238.068 294.304 C 240.765 299.912, 242.978 305.218, 242.986 306.095 C 243.010 308.756, 246.621 311.312, 249.379 310.620 C 251.278 310.143, 252.221 308.805, 253.515 304.751 C 254.437 301.863, 256.773 296.057, 258.707 291.848 C 261.840 285.030, 262.761 283.904, 267.158 281.510 C 269.873 280.033, 275.545 277.566, 279.764 276.028 C 288.521 272.835, 290.791 270.574, 288.510 267.318 C 287.705 266.169, 285.799 264.919, 284.273 264.540 C 282.748 264.162, 277.167 261.818, 271.871 259.332 L 262.242 254.812 258.202 246.156 C 255.980 241.395, 253.854 236.375, 253.477 235 C 251.873 229.147, 248.623 226.647, 245.373 228.765 M 243.549 253.900 L 239.731 261.731 231.808 265.593 L 223.886 269.456 231.906 273.432 C 239.876 277.383, 239.950 277.456, 243.937 285.232 L 247.949 293.057 251.980 285.039 L 256.011 277.022 263.985 273.262 L 271.958 269.501 263.804 265.401 C 255.823 261.389, 255.560 261.138, 251.508 253.685 L 247.367 246.069 243.549 253.900"/></svg>
