<svg xmlns="http://www.w3.org/2000/svg" width="1280" height="720" viewBox="0 0 1280 720" role="img" aria-labelledby="title desc">
  <title id="title">PawWork session screen placeholder</title>
  <desc id="desc">Placeholder for a future PawWork session screenshot with files and results.</desc>
  <rect width="1280" height="720" fill="#f4f0ec"/>
  <rect x="56" y="48" width="1168" height="624" rx="28" fill="#fffdfb" stroke="#d8cec4"/>
  <rect x="84" y="80" width="230" height="560" rx="18" fill="#f1e9e2"/>
  <rect x="342" y="80" width="534" height="560" rx="18" fill="#fffaf6" stroke="#e0d6cd"/>
  <rect x="904" y="80" width="292" height="560" rx="18" fill="#f7f1eb" stroke="#e0d6cd"/>
  <g fill="#8c7b70">
    <rect x="116" y="118" width="132" height="18" rx="9"/>
    <rect x="116" y="168" width="164" height="14" rx="7"/>
    <rect x="116" y="206" width="132" height="14" rx="7"/>
    <rect x="116" y="244" width="152" height="14" rx="7"/>
  </g>
  <g fill="#2f2925">
    <rect x="382" y="122" width="320" height="24" rx="12"/>
    <rect x="382" y="188" width="410" height="16" rx="8"/>
    <rect x="382" y="222" width="370" height="16" rx="8"/>
  </g>
  <g fill="#f4eee8" stroke="#ded2c8">
    <rect x="382" y="284" width="438" height="92" rx="18"/>
    <rect x="382" y="404" width="438" height="92" rx="18"/>
    <rect x="382" y="524" width="438" height="70" rx="18"/>
  </g>
  <g fill="#8c7b70">
    <rect x="932" y="118" width="142" height="18" rx="9"/>
    <rect x="932" y="176" width="214" height="14" rx="7"/>
    <rect x="932" y="214" width="190" height="14" rx="7"/>
    <rect x="932" y="288" width="210" height="14" rx="7"/>
    <rect x="932" y="326" width="170" height="14" rx="7"/>
    <rect x="932" y="400" width="186" height="14" rx="7"/>
  </g>
  <circle cx="793" cy="562" r="18" fill="#ff6b35"/>
  <text x="640" y="640" text-anchor="middle" font-family="Inter, Arial, sans-serif" font-size="22" fill="#6d5f55">PawWork session screenshot placeholder</text>
</svg>
